<svg xmlns="http://www.w3.org/2000/svg" viewBox="0 0 32 32">
	<path d="M16,30c-2.9,0-5.7-0.9-8.1-2.6h0c-3-2.2-5-5.4-5.6-9.1c-0.6-3.7,0.3-7.4,2.4-10.5c2.2-3,5.4-5.1,9.1-5.7
		c3.7-0.6,7.4,0.3,10.4,2.5c3,2.2,5,5.4,5.6,9.1c0.6,3.7-0.3,7.4-2.4,10.5c-2.2,3-5.4,5.1-9.1,5.7C17.5,29.9,16.7,30,16,30z
		 M8.4,26.5c2.8,2,6.3,2.9,9.7,2.3c3.4-0.6,6.4-2.4,8.5-5.3c4.2-5.9,2.9-14-3-18.3c-2.8-2-6.3-2.9-9.7-2.3c-3.4,0.6-6.4,2.4-8.5,5.3
		C1.2,14.1,2.6,22.3,8.4,26.5L8.4,26.5z" />

	<path d="M20.8,22.4c0.9-0.3,1.5-0.9,1.7-1.7l0.1-0.3l0-6.8c0-5.1,0-6.8,0-6.9c0-0.1-0.1-0.2-0.1-0.3c-0.1-0.1-0.2-0.1-0.3-0.1
	c-0.1,0-0.4,0-0.7,0.1c-1.2,0.2-8.4,1.7-8.5,1.7c-0.2,0.1-0.4,0.2-0.5,0.4l-0.1,0.1c0,0,0,10.6-0.1,10.7c-0.1,0.2-0.3,0.4-0.4,0.4
	c-0.1,0-0.4,0.1-0.7,0.2c-1.4,0.3-2,0.5-2.4,0.9c-0.3,0.3-0.4,0.6-0.5,1c-0.1,0.3-0.1,0.9,0.1,1.2c0.1,0.3,0.3,0.6,0.6,0.8
	c0.2,0.2,0.5,0.3,0.8,0.4c0.7,0.2,1.9,0,2.5-0.4c0.3-0.2,0.6-0.5,0.8-0.7c0.1-0.1,0.2-0.3,0.2-0.5c0.2-0.5,0.2-10,0.2-10.2
	c0-0.2,0.2-0.4,0.4-0.4c0.2,0,7.1-1.4,7.3-1.4c0.2,0,0.3,0,0.4,0.1c0.1,0,0.1,0.1,0.1,0.1c0.1,0.1,0.1,0.2,0.1,3.3
	c0,3.5,0,3.4-0.2,3.6c-0.1,0.2-0.3,0.2-1,0.4c-1.1,0.2-1.4,0.3-1.8,0.5c-0.5,0.2-0.8,0.5-1,1c-0.2,0.3-0.2,0.6-0.2,0.9
	c0,0.6,0.2,1,0.6,1.5c0,0,0.1,0.1,0.1,0.1c0.2,0.2,0.5,0.3,0.7,0.3C19.3,22.6,20.2,22.6,20.8,22.4z" />
</svg>