<svg xmlns="http://www.w3.org/2000/svg" viewBox="0 0 32 32">
	<path id="XMLID_2398_" d="M15.9,4.6c3.8,0,4.3,0,5.8,0.1c1.4,0.1,2.1,0.3,2.6,0.5C25,5.4,25.5,5.7,26,6.2c0.5,0.5,0.8,1,1.1,1.6
	c0.2,0.5,0.4,1.3,0.5,2.6c0.1,1.5,0.1,2,0.1,5.8c0,3.8,0,4.3-0.1,5.8c-0.1,1.4-0.3,2.1-0.5,2.6c-0.3,0.7-0.6,1.1-1.1,1.6
	c-0.5,0.5-1,0.8-1.6,1.1c-0.5,0.2-1.3,0.4-2.6,0.5c-1.5,0.1-2,0.1-5.8,0.1c-3.8,0-4.3,0-5.8-0.1c-1.4-0.1-2.1-0.3-2.6-0.5
	c-0.7-0.3-1.1-0.6-1.6-1.1c-0.5-0.5-0.8-1-1.1-1.6c-0.2-0.5-0.4-1.3-0.5-2.6c-0.1-1.5-0.1-2-0.1-5.8c0-3.8,0-4.3,0.1-5.8
	c0.1-1.4,0.3-2.1,0.5-2.6c0.3-0.7,0.6-1.1,1.1-1.6c0.5-0.5,1-0.8,1.6-1.1C8,4.9,8.8,4.7,10.2,4.7C11.7,4.6,12.1,4.6,15.9,4.6
	 M15.9,2C12,2,11.6,2,10,2.1C8.5,2.2,7.5,2.4,6.6,2.7C5.6,3.1,4.9,3.6,4.1,4.4C3.3,5.2,2.8,6,2.4,6.9c-0.4,0.9-0.6,1.9-0.7,3.5
	c-0.1,1.5-0.1,2-0.1,5.9c0,3.9,0,4.4,0.1,5.9c0.1,1.5,0.3,2.6,0.7,3.5c0.4,0.9,0.9,1.7,1.6,2.5c0.8,0.8,1.6,1.3,2.5,1.6
	c0.9,0.4,1.9,0.6,3.5,0.7c1.5,0.1,2,0.1,5.9,0.1c3.9,0,4.4,0,5.9-0.1c1.5-0.1,2.6-0.3,3.5-0.7c0.9-0.4,1.7-0.9,2.5-1.6
	c0.8-0.8,1.3-1.6,1.6-2.5c0.4-0.9,0.6-1.9,0.7-3.5c0.1-1.5,0.1-2,0.1-5.9c0-3.9,0-4.4-0.1-5.9c-0.1-1.5-0.3-2.6-0.7-3.5
	c-0.4-0.9-0.9-1.7-1.6-2.5c-0.8-0.8-1.6-1.3-2.5-1.6c-0.9-0.4-1.9-0.6-3.5-0.7C20.3,2,19.8,2,15.9,2" />
	<path id="XMLID_2395_" d="M15.9,8.9c-4,0-7.3,3.3-7.3,7.3s3.3,7.3,7.3,7.3c4,0,7.3-3.3,7.3-7.3S20,8.9,15.9,8.9 M15.9,21
	c-2.6,0-4.8-2.1-4.8-4.8c0-2.6,2.1-4.8,4.8-4.8c2.6,0,4.8,2.1,4.8,4.8C20.7,18.9,18.5,21,15.9,21" />
	<path id="XMLID_2394_" d="M25.2,8.6c0,0.9-0.8,1.7-1.7,1.7c-0.9,0-1.7-0.8-1.7-1.7s0.8-1.7,1.7-1.7C24.5,6.9,25.2,7.7,25.2,8.6" />
</svg>