<svg xmlns="http://www.w3.org/2000/svg" viewBox="0 0 32 32">
	<path id="XMLID_2288_" d="M15.8,2C8.1,2,1.8,8.3,1.8,16.1c0,7.8,6.3,14.1,14.1,14.1c7.8,0,14.1-6.3,14.1-14.1
	C29.9,8.3,23.6,2,15.8,2z M22.3,22.3c-0.3,0.4-0.8,0.6-1.2,0.3c-3.3-2-7.5-2.5-12.4-1.3c-0.5,0.1-0.9-0.2-1.1-0.6
	c-0.1-0.5,0.2-0.9,0.6-1.1c5.3-1.2,10-0.7,13.6,1.5C22.4,21.3,22.5,21.9,22.3,22.3z M24,18.4c-0.4,0.5-1,0.7-1.5,0.4
	c-3.8-2.3-9.6-3-14-1.6C8,17.3,7.3,17,7.2,16.5c-0.1-0.6,0.1-1.2,0.7-1.3c5.1-1.5,11.5-0.8,15.8,1.9C24.1,17.3,24.3,18,24,18.4z
	 M24.1,14.5c-4.5-2.7-12-3-16.3-1.6c-0.7,0.2-1.4-0.2-1.6-0.8C6,11.3,6.4,10.6,7,10.4c5-1.5,13.2-1.2,18.4,1.9
	c0.6,0.4,0.8,1.2,0.5,1.8C25.6,14.7,24.8,14.9,24.1,14.5z" />
</svg>